<svg xmlns="http://www.w3.org/2000/svg" viewBox="0 0 64 64">
  <!-- 更深的蓝色渐变背景 -->
  <defs>
    <linearGradient id="grad1" x1="0%" y1="0%" x2="100%" y2="100%">
      <stop offset="0%" style="stop-color:#0A1929;stop-opacity:1" />
      <stop offset="100%" style="stop-color:#0D2B4D;stop-opacity:1" />
    </linearGradient>
    
    <!-- AI 神经网络连接动画 -->
    <pattern id="ai-grid" x="0" y="0" width="8" height="8" patternUnits="userSpaceOnUse">
      <circle cx="4" cy="4" r="0.5" fill="white" fill-opacity="0.3"/>
    </pattern>
  </defs>
  
  <!-- 主圆形背景 -->
  <circle cx="32" cy="32" r="30" fill="url(#grad1)"/>
  
  <!-- AI 元素：神经网络点阵 -->
  <circle cx="32" cy="32" r="28" fill="url(#ai-grid)" opacity="0.15"/>
  
  <!-- AI 元素：连接线 -->
  <path d="M16 32 Q32 16 48 32" stroke="white" stroke-width="0.5" fill="none" opacity="0.2"/>
  <path d="M16 36 Q32 20 48 36" stroke="white" stroke-width="0.5" fill="none" opacity="0.2"/>
  
  <!-- 装饰性圆环 -->
  <circle cx="32" cy="32" r="26" fill="none" stroke="white" stroke-width="0.5" stroke-opacity="0.3"/>
  
  <!-- DC 字母 -->
  <g transform="translate(0, 2)">
    <!-- D -->
    <path d="M22 24h6c4 0 6 4 6 8s-2 8-6 8h-6v-16" 
          fill="none" stroke="white" stroke-width="2.5" stroke-linecap="round"/>
    
    <!-- C -->
    <path d="M36 28c1-2 3-4 6-4s5 2 6 4m-12 8c1 2 3 4 6 4s5-2 6-4" 
          fill="none" stroke="white" stroke-width="2.5" stroke-linecap="round"/>
  </g>

  <!-- AI 电路元素 -->
  <g stroke="white" stroke-width="0.5" opacity="0.3">
    <circle cx="18" cy="20" r="1" fill="white"/>
    <circle cx="46" cy="20" r="1" fill="white"/>
    <circle cx="18" cy="44" r="1" fill="white"/>
    <circle cx="46" cy="44" r="1" fill="white"/>
    <line x1="18" y1="20" x2="22" y2="24"/>
    <line x1="46" y1="20" x2="42" y2="24"/>
    <line x1="18" y1="44" x2="22" y2="40"/>
    <line x1="46" y1="44" x2="42" y2="40"/>
  </g>
</svg>